<?xml version="1.0" encoding="UTF-8"?><!DOCTYPE svg PUBLIC '-//W3C//DTD SVG 1.1//EN' 'http://www.w3.org/Graphics/SVG/1.1/DTD/svg11.dtd'><svg version="1.1" viewBox="0 0 24 24" xmlns="http://www.w3.org/2000/svg"><path d="m5 3h14a2 2 0 0 1 2 2v14a2 2 0 0 1 -2 2h-14a2 2 0 0 1 -2 -2v-14a2 2 0 0 1 2 -2m12.71 6.33c0.48-0.4 1.04-0.88 1.29-1.41-0.41 0.21-0.9 0.34-1.44 0.41 0.5-0.36 0.91-0.83 1.12-1.47-0.52 0.28-1.05 0.52-1.71 0.64-1.55-1.87-5.26-0.35-4.6 2.45-2.61-0.16-4.2-1.34-5.52-2.79-0.75 1.22-0.1 3.07 0.79 3.58-0.46-0.03-0.81-0.17-1.14-0.33 0.04 1.54 0.89 2.28 2.08 2.68-0.36 0.07-0.76 0.09-1.14 0.03 0.37 1.07 1.14 1.74 2.46 1.88-0.9 0.76-2.56 1.29-3.9 1.08 1.15 0.73 2.46 1.31 4.28 1.23 4.41-0.2 7.36-3.36 7.43-7.98z" fill="#fff"/></svg>
